Coordinates
version=1
nRows=14
nColumns=40
inDegrees=yes

Units are S.I. units (second, meters, Newtons, ...)
Angles are in degrees.

endheader
time	pelvis_tilt	pelvis_list	pelvis_rotation	pelvis_tx	pelvis_ty	pelvis_tz	hip_flexion_r	hip_adduction_r	hip_rotation_r	knee_angle_r	knee_angle_r_beta	ankle_angle_r	subtalar_angle_r	mtp_angle_r	hip_flexion_l	hip_adduction_l	hip_rotation_l	knee_angle_l	knee_angle_l_beta	ankle_angle_l	subtalar_angle_l	mtp_angle_l	lumbar_extension	lumbar_bending	lumbar_rotation	arm_flex_r	arm_add_r	arm_rot_r	elbow_flex_r	pro_sup_r	wrist_flex_r	wrist_dev_r	arm_flex_l	arm_add_l	arm_rot_l	elbow_flex_l	pro_sup_l	wrist_flex_l	wrist_dev_l
     29.79300000	     -4.00770520	     -5.89578541	      7.03451290	      1.12625507	      0.92315401	      0.48993137	      1.70781610	      4.13528716	    -18.06688416	     11.04862894	     11.04862894	     14.72152500	      2.10594096	     -6.48628491	     28.56968686	     -8.91290075	     -1.91355086	     19.57884686	     19.57884686	      1.54617704	     -9.43963816	      4.21082925	     -9.35213430	      6.98247289	      4.86102912	     33.26357965	    -15.83604733	     -0.49485255	     86.08397926	     44.44646177	      0.00000000	      0.00000000	     -7.58175046	     -7.54932176	     -1.13443221	     30.32965640	     45.87327076	      0.00000000	      0.00000000
     29.80600000	     -4.02106572	     -5.83499271	      6.84251880	      1.12771995	      0.92265971	      0.48781330	      1.32484487	      3.88260667	    -18.13842584	     11.31180550	     11.31180550	     15.51196696	      2.77802355	     -5.28370996	     27.97324863	     -8.68877506	     -1.57102424	     19.78963254	     19.78963254	      0.72944548	    -10.63269995	      2.94194831	     -9.22435737	      6.78987235	      4.74753864	     32.97933645	    -15.42886601	     -0.12823167	     85.65273176	     44.49585171	      0.00000000	      0.00000000	     -7.69137182	     -7.74550773	     -1.17382645	     31.44371973	     45.86675280	      0.00000000	      0.00000000
     29.81900000	     -4.06698817	     -5.79380461	      6.67041633	      1.12903617	      0.92227763	      0.48564669	      0.93306513	      3.70331346	    -17.92817454	     11.37262945	     11.37262945	     15.70833233	      2.82611244	     -5.29264839	     27.64568425	     -8.57069204	     -1.51998267	     20.30908001	     20.30908001	      0.88034509	    -10.91677958	      2.78501762	     -9.09046328	      6.62808439	      4.72501150	     32.47676564	    -15.13329018	      0.06639007	     85.46129137	     44.49567112	      0.00000000	      0.00000000	     -7.23599008	     -7.86443686	     -1.18521160	     31.60869343	     45.87520076	      0.00000000	      0.00000000
     29.83200000	     -4.06702224	     -5.71667773	      6.53979644	      1.13025350	      0.92214459	      0.48324186	      0.53427832	      3.45970531	    -17.75380359	     11.50759178	     11.50759178	     15.84414507	      2.82836006	     -5.24809623	     27.39436240	     -8.39227984	     -1.38310878	     20.93492923	     20.93492923	      1.17851344	    -11.34077306	      2.56080078	     -9.04452515	      6.42381002	      4.70005662	     31.86829047	    -14.90063702	      0.26073654	     85.13438606	     44.49963279	      0.00000000	      0.00000000	     -6.72768132	     -8.00665603	     -1.20111234	     31.79978507	     45.88500114	      0.00000000	      0.00000000
     29.84500000	     -4.04165731	     -5.63303145	      6.44987089	      1.13132971	      0.92220639	      0.48060399	      0.18467705	      3.17497567	    -17.60534279	     11.77080298	     11.77080298	     15.95378487	      2.76582890	     -5.16067123	     27.21241738	     -8.17966409	     -1.17827748	     21.61959646	     21.61959646	      1.55026155	    -11.86581276	      2.32748694	     -9.03443029	      6.23611972	      4.68759010	     31.18888268	    -14.75988292	      0.44702689	     84.64117725	     44.50940617	      0.00000000	      0.00000000	     -6.14444140	     -8.15656949	     -1.21690202	     32.02473961	     45.89580189	      0.00000000	      0.00000000
     29.85800000	     -4.17920513	     -5.58450225	      6.30900767	      1.13206561	      0.92211998	      0.47773090	      0.33570944	      2.79242738	    -17.38774376	     12.62892170	     12.62892170	     16.27814171	      2.47493129	     -4.68853596	     27.29298164	     -7.91199644	     -0.72522731	     22.36711917	     22.36711917	      1.98741708	    -12.89425243	      2.32935029	     -8.85148488	      6.10783332	      4.90515259	     30.61858895	    -15.05885602	      0.59742912	     83.19388359	     44.56087719	      0.00000000	      0.00000000	     -5.38031293	     -8.26038126	     -1.17342679	     32.32855861	     45.89928064	      0.00000000	      0.00000000
     29.87100000	     -4.10381843	     -5.49100494	      6.26257885	      1.13301317	      0.92261776	      0.47465467	      0.01524228	      2.44922679	    -17.26795956	     13.01456458	     13.01456458	     16.27908527	      2.36604024	     -4.58737725	     27.00358777	     -7.66288255	     -0.57063673	     22.84544494	     22.84544494	      2.57250075	    -13.25697139	      2.11303236	     -8.94340453	      5.95710888	      4.65789182	     29.78490990	    -14.80923429	      0.82738805	     82.71140773	     44.56776266	      0.00000000	      0.00000000	     -4.68311882	     -8.39201466	     -1.16811568	     32.56746581	     45.90887222	      0.00000000	      0.00000000
     29.88400000	     -4.20471619	     -5.37795494	      6.11536832	      1.13356583	      0.92290911	      0.47147984	      0.45098087	      1.87585596	    -17.02345757	     14.52291891	     14.52291891	     17.01151684	      2.01282755	     -2.90510141	     27.04242719	     -7.33990466	     -0.31694527	     23.59428167	     23.59428167	      3.65971226	    -13.85299650	      3.48828362	     -8.77751704	      5.75565685	      4.41873644	     29.59133576	    -14.73938301	      1.43161938	     79.91596937	     44.67957688	      0.00000000	      0.00000000	     -4.02304390	     -8.58567134	     -0.74370895	     32.73128289	     45.85280800	      0.00000000	      0.00000000
     29.89700000	     -4.04938340	     -5.36719287	      6.06935354	      1.13445559	      0.92363353	      0.46813885	      0.22631294	      1.55265102	    -16.91500471	     15.21574224	     15.21574224	     16.91339245	      1.85362181	     -2.94942454	     26.65327279	     -7.18002999	     -0.21714782	     24.01291586	     24.01291586	      4.30253954	    -14.10459753	      3.24557432	     -8.95907855	      5.76268386	      4.21172269	     28.56191252	    -14.60953614	      1.65975082	     79.37580406	     44.68737754	      0.00000000	      0.00000000	     -3.22539248	     -8.72107392	     -0.76157535	     33.07487906	     45.86719658	      0.00000000	      0.00000000
     29.91000000	     -4.16130374	     -5.22090310	      5.81029346	      1.13491915	      0.92382855	      0.46485595	      0.98887060	      0.82386528	    -16.55951950	     17.24509797	     17.24509797	     17.02984905	      1.18742266	     -3.29011895	     26.55444782	     -6.92601932	     -0.41029416	     24.52044972	     24.52044972	      5.02696446	    -14.32531870	      3.34504663	     -8.83301886	      5.54697256	      4.65726579	     27.58746555	    -15.22355394	      1.85877685	     77.67512941	     44.74189153	      0.00000000	      0.00000000	     -2.25024722	     -8.80660132	     -0.70209388	     33.68957406	     45.87267195	      0.00000000	      0.00000000
     29.92300000	     -4.07034382	     -5.14085019	      5.59159804	      1.13558947	      0.92438909	      0.46154805	      1.43143319	      0.22777564	    -16.23961190	     19.04592829	     19.04592829	     16.93539276	      0.62536486	     -3.67162089	     26.16435508	     -6.76460872	     -0.62349485	     24.90419449	     24.90419449	      5.72845032	    -14.44377689	      3.34804068	     -8.93084882	      5.44251568	      4.72900418	     26.60339870	    -15.42636585	      2.10041333	     76.30386543	     44.78072731	      0.00000000	      0.00000000	     -1.36323018	     -8.93347215	     -0.62679662	     34.18773612	     45.87526531	      0.00000000	      0.00000000
     29.93600000	     -4.06100191	     -5.09779385	      5.33485245	      1.13616672	      0.92484341	      0.45833751	      2.19050550	     -0.39107665	    -15.82867239	     21.23481389	     21.23481389	     16.69087616	     -0.08745988	     -4.28184908	     25.80007928	     -6.65548320	     -0.90188585	     25.17645288	     25.17645288	      6.39851566	    -14.38734474	      3.36641338	     -8.91070806	      5.34724717	      4.81289361	     25.53539607	    -15.59959095	      2.39517467	     74.65389251	     44.82683659	      0.00000000	      0.00000000	     -0.48705808	     -9.06247863	     -0.50228598	     34.75776740	     45.87154255	      0.00000000	      0.00000000
     29.94900000	     -3.94407623	     -5.05832100	      5.07329748	      1.13672831	      0.92538453	      0.45519268	      2.97804164	     -1.02230796	    -15.38800065	     23.66130033	     23.66130033	     16.31291626	     -0.83651699	     -5.00870879	     25.29556664	     -6.58253093	     -1.26438393	     25.41185948	     25.41185948	      7.03148368	    -14.27972085	      3.26997014	     -9.03836208	      5.27520188	      4.81098407	     24.43039003	    -15.70989899	      2.68667986	     73.11958298	     44.86735287	      0.00000000	      0.00000000	      0.39788939	     -9.21504588	     -0.39649830	     35.34133338	     45.87098319	      0.00000000	      0.00000000
     29.96200000	     -4.00633797	     -5.08581202	      4.72719166	      1.13715111	      0.92559859	      0.45231764	      4.18381833	     -1.52847682	    -14.51209969	     26.29971034	     26.29971034	     14.95195291	     -2.66953491	     -7.81007347	     25.04600484	     -6.64586154	     -1.81032786	     25.78057642	     25.78057642	      7.94226741	    -13.77162292	      3.66917219	     -8.82201554	      5.25504811	      4.39329258	     24.28179996	    -15.34409325	      3.49529585	     68.88598526	     45.00142568	      0.00000000	      0.00000000	      0.72058176	     -9.74835219	      0.63356266	     36.66498534	     45.75059478	      0.00000000	      0.00000000
